<svg xmlns="http://www.w3.org/2000/svg" xmlns:xlink="http://www.w3.org/1999/xlink" width="375" height="812" viewBox="0 0 375 812">
  <defs>
    <rect id="rect-1" width="375" height="83" x="0" y="0" rx="0" ry="0"/>
    <filter id="filter-2" width="200%" height="200%" x="-50%" y="-50%" color-interpolation-filters="sRGB" filterUnits="userSpaceOnUse">
      <feOffset dx="0" dy="-.5" in="SourceAlpha" result="shadow-1-feOffset-shadow"/>
      <feGaussianBlur in="shadow-1-feOffset-shadow" result="shadow-1-feGaussianBlur-shadow" stdDeviation="0"/>
      <feColorMatrix in="shadow-1-feGaussianBlur-shadow" result="shadow-1-feColorMatrix-shadow" type="matrix" values="0 0 0 0 0  0 0 0 0 0  0 0 0 0 0  0 0 0 0.3 0"/>
    </filter>
    <rect id="rect-9" width="100" height="80" x="1.5" y="25.5"/>
    <mask id="mask-10" x="-18" y="-115" maskContentUnits="userSpaceOnUse" maskUnits="userSpaceOnUse">
      <rect width="375" height="812" x="-18" y="-115" fill="black"/>
      <use fill="white" xlink:href="#rect-9"/>
    </mask>
    <ellipse id="ellipse-12" cx="24.5" cy="48.5" rx="8" ry="8"/>
    <mask id="mask-13" x="-18" y="-115" maskContentUnits="userSpaceOnUse" maskUnits="userSpaceOnUse">
      <rect width="375" height="812" x="-18" y="-115" fill="black"/>
      <use fill="white" xlink:href="#ellipse-12"/>
    </mask>
    <rect id="rect-15" width="100" height="80" x="1.5" y="25.5"/>
    <mask id="mask-16" x="-136" y="-115" maskContentUnits="userSpaceOnUse" maskUnits="userSpaceOnUse">
      <rect width="375" height="812" x="-136" y="-115" fill="black"/>
      <use fill="white" xlink:href="#rect-15"/>
    </mask>
    <ellipse id="ellipse-18" cx="24.5" cy="48.5" rx="8" ry="8"/>
    <mask id="mask-19" x="-136" y="-115" maskContentUnits="userSpaceOnUse" maskUnits="userSpaceOnUse">
      <rect width="375" height="812" x="-136" y="-115" fill="black"/>
      <use fill="white" xlink:href="#ellipse-18"/>
    </mask>
    <rect id="rect-21" width="100" height="80" x="1.5" y="25.5"/>
    <mask id="mask-22" x="-257" y="-115" maskContentUnits="userSpaceOnUse" maskUnits="userSpaceOnUse">
      <rect width="375" height="812" x="-257" y="-115" fill="black"/>
      <use fill="white" xlink:href="#rect-21"/>
    </mask>
    <ellipse id="ellipse-24" cx="24.5" cy="48.5" rx="8" ry="8"/>
    <mask id="mask-25" x="-257" y="-115" maskContentUnits="userSpaceOnUse" maskUnits="userSpaceOnUse">
      <rect width="375" height="812" x="-257" y="-115" fill="black"/>
      <use fill="white" xlink:href="#ellipse-24"/>
    </mask>
  </defs>
  <g transform="translate(0 729)">
    <g>
      <use fill="black" stroke="black" stroke-opacity="0" stroke-width="0" filter="url(#filter-2)" xlink:href="#rect-1"/>
      <use fill="rgb(247,247,247)" fill-opacity=".8" xlink:href="#rect-1"/>
    </g>
    <g transform="translate(282)">
      <text font-size="0" style="white-space:pre">
        <tspan x="28.58" y="45" fill="rgb(146,146,146)" font-family="SF Pro Text" font-size="10" font-weight="400" style="white-space:pre" letter-spacing=".12">Key I</tspan>
      </text>
      <path fill="rgb(0,0,0)" fill-rule="evenodd" d="M44.125 8c0 1.65685415 1.34314537 3 3 3s3-1.34314585 3-3c0-1.65685427-1.34314537-3-3-3s-3 1.34314573-3 3zm6 8c0-.55228424.44771576-1 1-1h7c.82842636 0 1.5-.67157269 1.5-1.5s-.67157364-1.5-1.5-1.5h-22c-.82842708 0-1.5.67157269-1.5 1.5s.67157292 1.5 1.5 1.5h7c.5522852 0 1 .44771576 1 1v.77323723c0 1.17891216-.12356758 2.35457706-.36867714 3.50772667l-2.3182354 10.90644264c-.1722393.81032372.34502983 1.60684967 1.15535355 1.77908897.81032371.1722393 1.60684967-.34502983 1.77908897-1.15535354l2.51030636-9.8599701c.03406525-.13380432.1701498-.21465682.30395222-.18059158.0887041.02258492.15797424.09183884.18057728.18053818l2.51254368 9.8600235c.1722393.81032371.96876525 1.32759285 1.77908897 1.15535354.81032371-.1722393 1.32759285-.96876525 1.15535355-1.77908897l-2.321867-10.92353153c-.244318-1.14941788-.36748504-2.32127857-.36748504-3.49637509V16z"/>
    </g>
    <g transform="translate(188)">
      <text font-size="0" style="white-space:pre">
        <tspan x="22.953" y="45" fill="rgb(146,146,146)" font-family="SF Pro Text" font-size="10" font-weight="400" style="white-space:pre" letter-spacing=".12">Sympt</tspan>
      </text>
      <g transform="translate(33.125 5)">
        <path fill="rgb(0,0,0)" fill-rule="evenodd" d="M15.49508127 15.84371611c.09276001.40368607.49509472.65571515.89863971.5629227.21745515-.05000233.40134796-.19429554.50169-.39365571l1.134894-2.25481458 1.23897018 2.23464756c.13388902.24148665.43812272.32867383.679525.19473801.24140226-.13393582.32855898-.43827587.19466996-.67976253l-1.46819732-2.64808922c-.07302631-.13171267-.18400328-.23837959-.31848153-.30611255-.36983574-.18627601-.82060063-.03736664-1.00681155.33259838l-1.0358615 2.05805618-1.23211619-5.36209637c-.0645176-.28077678-.28410922-.499767-.56498602-.5634387-.40382988-.09154383-.80538367.16172848-.8968955.56569952l-1.6478922 7.27447727-.8315156-3.10330249c-.06212363-.2318518-.20554237-.43361463-.40406497-.56844237-.45676892-.3102172-1.07844613-.1912841-1.38855492.26564449l-1.06545586 1.56989182c-.1550544.2284643-.09560863.53941156.13277583.69452015.22838446.1551086.53922307.09564206.69427746-.13282224l1.06545586-1.56989182 1.09323074 4.08005051c.10720243.4000906.51833133.63749298.91828211.53025307.26880574-.07207562.47558667-.28716558.5370915-.55867334l1.62930506-7.1924259 1.14202575 4.97002816z"/>
        <path fill="rgb(0,0,0)" fill-rule="evenodd" d="M9.5 0v1.5033722H6c-1.10456944 0-2 .89543056-2 2v22c0 1.10457038.89543056 2 2 2h16c1.10457039 0 2-.89542962 2-2v-22c0-1.10456944-.89542961-2-2-2h-3.5V0h-9zm.99929047 1v3h7.00141906V1h-7.00141906zm6.00084686 1h-5.00027466v1h5.00027466V2zM6.5 4.0033722h3V5h9v-.9966278h3v21h-15v-21z"/>
      </g>
    </g>
    <g transform="translate(94)">
      <text font-size="0" style="white-space:pre">
        <tspan x="19.646" y="45" fill="rgb(146,146,146)" font-family="SF Pro Text" font-size="10" font-weight="400" style="white-space:pre" letter-spacing=".12">Docum</tspan>
      </text>
      <path fill="rgb(0,0,0)" fill-rule="evenodd" d="M40.875 9c-.41421366 0-.75-.33578634-.75-.75s.33578634-.75.75-.75h12.5c.41421318 0 .75.33578634.75.75s-.33578682.75-.75.75h-12.5zm-1 2.5c-.41421366 0-.75-.33578634-.75-.75s.33578634-.75.75-.75h14.5c.41421318 0 .75.33578634.75.75s-.33578682.75-.75.75h-14.5zm-2.25 18v-16c0-.55228472.44771528-1 1-1h17c.55228424 0 1 .44771528 1 1v16c0 .55228424-.44771576 1-1 1h-17c-.55228472 0-1-.44771576-1-1z"/>
    </g>
    <g>
      <text font-size="0" style="white-space:pre">
        <tspan x="25.289" y="45" fill="rgb(0,122,255)" font-family="SF Pro Text" font-size="10" font-weight="400" style="white-space:pre" letter-spacing=".12">Calen</tspan>
      </text>
      <path fill="rgb(0,0,0)" fill-rule="evenodd" d="M40.625 8h13c1.3805008 0 2.5 1.11899996 2.5 2.5v17c0 1.38100052-1.1194992 2.5-2.5 2.5h-13c-1.38049984 0-2.5-1.11899948-2.5-2.5v-17c0-1.38100004 1.11950016-2.5 2.5-2.5zm14 2.5c0-.55149984-.44849968-1-1-1h-13c-.55149984 0-1 .44850016-1 1v17c0 .55150032.44850016 1 1 1h13c.55150032 0 1-.44849968 1-1v-17zm-7.5 2h-5.5c-.27499962 0-.5-.2249999-.5-.5v-.5c0-.2750001.22500038-.5.5-.5h5.5c.27499962 0 .5.2249999.5.5v.5c0 .2750001-.22500038.5-.5.5zm-6 14c0 .27499962.22500038.5.5.5h11c.27499962 0 .5-.22500038.5-.5v-11c0-.27499962-.22500038-.5-.5-.5h-11c-.27499962 0-.5.22500038-.5.5v11z"/>
    </g>
  </g>
  <g transform="translate(18 115)">
    <path fill="rgb(21,21,21)" fill-rule="evenodd" d="M5 0h93c2.75957512 0 5 2.24042488 5 5v121c0 2.75957512-2.24042488 5-5 5H5c-2.75957512 0-5-2.24042488-5-5V5c0-2.75957512 2.24042488-5 5-5z"/>
    <g>
      <use fill-opacity="0" stroke="rgb(255,51,102)" stroke-linecap="butt" stroke-linejoin="miter" stroke-width="4" mask="url(#mask-10)" xlink:href="#rect-9"/>
      <path fill="none" stroke="rgb(255,51,102)" stroke-width="2" d="M100.5024158 90.50417762l-35.00100563-35.0090234-47.99729455 49.00532715"/>
      <use fill-opacity="0" stroke="rgb(255,51,102)" stroke-width="4" mask="url(#mask-13)" xlink:href="#ellipse-12"/>
    </g>
  </g>
  <g transform="translate(136 115)">
    <path fill="rgb(21,21,21)" fill-rule="evenodd" d="M5 0h93c2.75957512 0 5 2.24042488 5 5v121c0 2.75957512-2.24042488 5-5 5H5c-2.75957512 0-5-2.24042488-5-5V5c0-2.75957512 2.24042488-5 5-5z"/>
    <g>
      <use fill-opacity="0" stroke="rgb(255,51,102)" stroke-linecap="butt" stroke-linejoin="miter" stroke-width="4" mask="url(#mask-16)" xlink:href="#rect-15"/>
      <path fill="none" stroke="rgb(255,51,102)" stroke-width="2" d="M100.5024158 90.50417762l-35.00100563-35.0090234-47.99729455 49.00532715"/>
      <use fill-opacity="0" stroke="rgb(255,51,102)" stroke-width="4" mask="url(#mask-19)" xlink:href="#ellipse-18"/>
    </g>
  </g>
  <g transform="translate(257 115)">
    <path fill="rgb(21,21,21)" fill-rule="evenodd" d="M5 0h93c2.75957512 0 5 2.24042488 5 5v121c0 2.75957512-2.24042488 5-5 5H5c-2.75957512 0-5-2.24042488-5-5V5c0-2.75957512 2.24042488-5 5-5z"/>
    <g>
      <use fill-opacity="0" stroke="rgb(255,51,102)" stroke-linecap="butt" stroke-linejoin="miter" stroke-width="4" mask="url(#mask-22)" xlink:href="#rect-21"/>
      <path fill="none" stroke="rgb(255,51,102)" stroke-width="2" d="M100.5024158 90.50417762l-35.00100563-35.0090234-47.99729455 49.00532715"/>
      <use fill-opacity="0" stroke="rgb(255,51,102)" stroke-width="4" mask="url(#mask-25)" xlink:href="#ellipse-24"/>
    </g>
  </g>
  <text font-size="0" style="white-space:pre" transform="translate(18 261)">
    <tspan x="0" y="5.5" fill="rgb(0,0,0)" font-family="SF Pro Text" font-size="12" font-weight="400" style="white-space:pre;text-transform:none">4 Apr 2020</tspan> <tspan x="0" y="21.5" fill="rgb(0,0,0)" font-family="SF Pro Text" font-size="12" font-weight="400" style="white-space:pre;text-transform:none">My description</tspan>
  </text>
  <g transform="translate(16 288)">
    <path fill="rgb(255,51,102)" fill-rule="evenodd" d="M15 0L0 15l15 15h60c2.75957489 0 5-2.24042511 5-5V5c0-2.75957513-2.24042511-5-5-5H15zm0 15c0-1.65574455-1.34425545-3-3-3s-3 1.34425545-3 3 1.34425545 3 3 3 3-1.34425545 3-3z"/>
    <text font-size="0" style="white-space:pre">
      <tspan x="15" y="20" fill="rgb(255,255,255)" font-family="Arial" font-size="16" font-weight="400" style="white-space:pre">Brighton</tspan>
    </text>
  </g>
</svg>
