<svg xmlns="http://www.w3.org/2000/svg" xmlns:xlink="http://www.w3.org/1999/xlink" width="375" height="812" viewBox="0 0 375 812">
  <defs>
    <rect id="rect-1" width="375" height="83" x="0" y="0" rx="0" ry="0"/>
    <filter id="filter-2" width="200%" height="200%" x="-50%" y="-50%" color-interpolation-filters="sRGB" filterUnits="userSpaceOnUse">
      <feOffset dx="0" dy="-.5" in="SourceAlpha" result="shadow-1-feOffset-shadow"/>
      <feGaussianBlur in="shadow-1-feOffset-shadow" result="shadow-1-feGaussianBlur-shadow" stdDeviation="0"/>
      <feColorMatrix in="shadow-1-feGaussianBlur-shadow" result="shadow-1-feColorMatrix-shadow" type="matrix" values="0 0 0 0 0  0 0 0 0 0  0 0 0 0 0  0 0 0 0.3 0"/>
    </filter>
    <rect id="rect-8" width="375" height="140" x="0" y="0" rx="0" ry="0"/>
    <filter id="filter-9" width="200%" height="200%" x="-50%" y="-50%" color-interpolation-filters="sRGB" filterUnits="userSpaceOnUse">
      <feOffset dx="0" dy=".5" in="SourceAlpha" result="shadow-1-feOffset-shadow"/>
      <feGaussianBlur in="shadow-1-feOffset-shadow" result="shadow-1-feGaussianBlur-shadow" stdDeviation="0"/>
      <feColorMatrix in="shadow-1-feGaussianBlur-shadow" result="shadow-1-feColorMatrix-shadow" type="matrix" values="0 0 0 0 0  0 0 0 0 0  0 0 0 0 0  0 0 0 0.3 0"/>
    </filter>
    <rect id="rect-12" width="100" height="80" x="1" y="25"/>
    <mask id="mask-13" x="-17" y="-180" maskContentUnits="userSpaceOnUse" maskUnits="userSpaceOnUse">
      <rect width="375" height="812" x="-17" y="-180" fill="black"/>
      <use fill="white" xlink:href="#rect-12"/>
    </mask>
    <ellipse id="ellipse-15" cx="24" cy="48" rx="8" ry="8"/>
    <mask id="mask-16" x="-17" y="-180" maskContentUnits="userSpaceOnUse" maskUnits="userSpaceOnUse">
      <rect width="375" height="812" x="-17" y="-180" fill="black"/>
      <use fill="white" xlink:href="#ellipse-15"/>
    </mask>
    <rect id="rect-18" width="100" height="80" x="1" y="25"/>
    <mask id="mask-19" x="-137" y="-180" maskContentUnits="userSpaceOnUse" maskUnits="userSpaceOnUse">
      <rect width="375" height="812" x="-137" y="-180" fill="black"/>
      <use fill="white" xlink:href="#rect-18"/>
    </mask>
    <ellipse id="ellipse-21" cx="24" cy="48" rx="8" ry="8"/>
    <mask id="mask-22" x="-137" y="-180" maskContentUnits="userSpaceOnUse" maskUnits="userSpaceOnUse">
      <rect width="375" height="812" x="-137" y="-180" fill="black"/>
      <use fill="white" xlink:href="#ellipse-21"/>
    </mask>
    <rect id="rect-24" width="100" height="80" x="1" y="25"/>
    <mask id="mask-25" x="-257" y="-179" maskContentUnits="userSpaceOnUse" maskUnits="userSpaceOnUse">
      <rect width="375" height="812" x="-257" y="-179" fill="black"/>
      <use fill="white" xlink:href="#rect-24"/>
    </mask>
    <ellipse id="ellipse-27" cx="24" cy="48" rx="8" ry="8"/>
    <mask id="mask-28" x="-257" y="-179" maskContentUnits="userSpaceOnUse" maskUnits="userSpaceOnUse">
      <rect width="375" height="812" x="-257" y="-179" fill="black"/>
      <use fill="white" xlink:href="#ellipse-27"/>
    </mask>
    <rect id="rect-29" width="375" height="44" x="0" y="0" rx="0" ry="0"/>
    <filter id="filter-30" width="200%" height="200%" x="-50%" y="-50%" color-interpolation-filters="sRGB" filterUnits="userSpaceOnUse">
      <feOffset dx="0" dy=".5" in="SourceAlpha" result="shadow-1-feOffset-shadow"/>
      <feGaussianBlur in="shadow-1-feOffset-shadow" result="shadow-1-feGaussianBlur-shadow" stdDeviation="0"/>
      <feColorMatrix in="shadow-1-feGaussianBlur-shadow" result="shadow-1-feColorMatrix-shadow" type="matrix" values="0 0 0 0 0.7372549019607844  0 0 0 0 0.7333333333333333  0 0 0 0 0.7568627450980392  0 0 0 1 0"/>
    </filter>
    <rect id="rect-33" width="375" height="44" x="0" y="0" rx="0" ry="0"/>
    <filter id="filter-34" width="200%" height="200%" x="-50%" y="-50%" color-interpolation-filters="sRGB" filterUnits="userSpaceOnUse">
      <feOffset dx="0" dy="-.5" in="SourceAlpha" result="shadow-1-feOffset-shadow"/>
      <feGaussianBlur in="shadow-1-feOffset-shadow" result="shadow-1-feGaussianBlur-shadow" stdDeviation="0"/>
      <feColorMatrix in="shadow-1-feGaussianBlur-shadow" result="shadow-1-feColorMatrix-shadow" type="matrix" values="0 0 0 0 0.7372549019607844  0 0 0 0 0.7333333333333333  0 0 0 0 0.7568627450980392  0 0 0 1 0"/>
    </filter>
    <filter id="filter-36" width="200%" height="200%" x="-50%" y="-50%" color-interpolation-filters="sRGB" filterUnits="userSpaceOnUse">
      <feGaussianBlur in="SourceAlpha" result="innershadow-1-feGaussianBlur-innershadow" stdDeviation="0"/>
      <feOffset dx="0" dy="-.5" in="innershadow-1-feGaussianBlur-innershadow" result="innershadow-1-feOffset-innershadow"/>
      <feComposite in="innershadow-1-feOffset-innershadow" in2="SourceAlpha" k2="-1" k3="1" operator="arithmetic" result="innershadow-1-feOffset-innershadow"/>
      <feColorMatrix in="innershadow-1-feOffset-innershadow" result="innershadow-1-feColorMatrix-innershadow" type="matrix" values="0 0 0 0 0.7372549019607844  0 0 0 0 0.7333333333333333  0 0 0 0 0.7568627450980392  0 0 0 1 0"/>
    </filter>
    <rect id="rect-39" width="375" height="44" x="0" y="0" rx="0" ry="0"/>
    <filter id="filter-40" width="200%" height="200%" x="-50%" y="-50%" color-interpolation-filters="sRGB" filterUnits="userSpaceOnUse">
      <feOffset dx="0" dy="-.5" in="SourceAlpha" result="shadow-1-feOffset-shadow"/>
      <feGaussianBlur in="shadow-1-feOffset-shadow" result="shadow-1-feGaussianBlur-shadow" stdDeviation="0"/>
      <feColorMatrix in="shadow-1-feGaussianBlur-shadow" result="shadow-1-feColorMatrix-shadow" type="matrix" values="0 0 0 0 0.7372549019607844  0 0 0 0 0.7333333333333333  0 0 0 0 0.7568627450980392  0 0 0 1 0"/>
    </filter>
    <filter id="filter-42" width="200%" height="200%" x="-50%" y="-50%" color-interpolation-filters="sRGB" filterUnits="userSpaceOnUse">
      <feGaussianBlur in="SourceAlpha" result="innershadow-1-feGaussianBlur-innershadow" stdDeviation="0"/>
      <feOffset dx="0" dy="-.5" in="innershadow-1-feGaussianBlur-innershadow" result="innershadow-1-feOffset-innershadow"/>
      <feComposite in="innershadow-1-feOffset-innershadow" in2="SourceAlpha" k2="-1" k3="1" operator="arithmetic" result="innershadow-1-feOffset-innershadow"/>
      <feColorMatrix in="innershadow-1-feOffset-innershadow" result="innershadow-1-feColorMatrix-innershadow" type="matrix" values="0 0 0 0 0.7372549019607844  0 0 0 0 0.7333333333333333  0 0 0 0 0.7568627450980392  0 0 0 1 0"/>
    </filter>
  </defs>
  <g transform="translate(0 729)">
    <g>
      <use fill="black" stroke="black" stroke-opacity="0" stroke-width="0" filter="url(#filter-2)" xlink:href="#rect-1"/>
      <use fill="rgb(247,247,247)" fill-opacity=".8" xlink:href="#rect-1"/>
    </g>
    <g transform="translate(282)">
      <text font-size="0" style="white-space:pre">
        <tspan x="28.58" y="45" fill="rgb(146,146,146)" font-family="SF Pro Text" font-size="10" font-weight="400" style="white-space:pre" letter-spacing=".12">Key Info</tspan>
      </text>
      <path fill="rgb(0,0,0)" fill-rule="evenodd" d="M44.125 8c0 1.65685415 1.34314537 3 3 3s3-1.34314585 3-3c0-1.65685427-1.34314537-3-3-3s-3 1.34314573-3 3zm6 8c0-.55228424.44771576-1 1-1h7c.82842636 0 1.5-.67157269 1.5-1.5s-.67157364-1.5-1.5-1.5h-22c-.82842708 0-1.5.67157269-1.5 1.5s.67157292 1.5 1.5 1.5h7c.5522852 0 1 .44771576 1 1v.77323723c0 1.17891216-.12356758 2.35457706-.36867714 3.50772667l-2.3182354 10.90644264c-.1722393.81032372.34502983 1.60684967 1.15535355 1.77908897.81032371.1722393 1.60684967-.34502983 1.77908897-1.15535354l2.51030636-9.8599701c.03406525-.13380432.1701498-.21465682.30395222-.18059158.0887041.02258492.15797424.09183884.18057728.18053818l2.51254368 9.8600235c.1722393.81032371.96876525 1.32759285 1.77908897 1.15535354.81032371-.1722393 1.32759285-.96876525 1.15535355-1.77908897l-2.321867-10.92353153c-.244318-1.14941788-.36748504-2.32127857-.36748504-3.49637509V16z"/>
    </g>
    <g transform="translate(188)">
      <text font-size="0" style="white-space:pre">
        <tspan x="22.953" y="45" fill="rgb(146,146,146)" font-family="SF Pro Text" font-size="10" font-weight="400" style="white-space:pre" letter-spacing=".12">Symptons</tspan>
      </text>
      <g transform="translate(33.125 5)">
        <path fill="rgb(0,0,0)" fill-rule="evenodd" d="M15.49508127 15.84371611c.09276001.40368607.49509472.65571515.89863971.5629227.21745515-.05000233.40134796-.19429554.50169-.39365571l1.134894-2.25481458 1.23897018 2.23464756c.13388902.24148665.43812272.32867383.679525.19473801.24140226-.13393582.32855898-.43827587.19466996-.67976253l-1.46819732-2.64808922c-.07302631-.13171267-.18400328-.23837959-.31848153-.30611255-.36983574-.18627601-.82060063-.03736664-1.00681155.33259838l-1.0358615 2.05805618-1.23211619-5.36209637c-.0645176-.28077678-.28410922-.499767-.56498602-.5634387-.40382988-.09154383-.80538367.16172848-.8968955.56569952l-1.6478922 7.27447727-.8315156-3.10330249c-.06212363-.2318518-.20554237-.43361463-.40406497-.56844237-.45676892-.3102172-1.07844613-.1912841-1.38855492.26564449l-1.06545586 1.56989182c-.1550544.2284643-.09560863.53941156.13277583.69452015.22838446.1551086.53922307.09564206.69427746-.13282224l1.06545586-1.56989182 1.09323074 4.08005051c.10720243.4000906.51833133.63749298.91828211.53025307.26880574-.07207562.47558667-.28716558.5370915-.55867334l1.62930506-7.1924259 1.14202575 4.97002816z"/>
        <path fill="rgb(0,0,0)" fill-rule="evenodd" d="M9.5 0v1.5033722H6c-1.10456944 0-2 .89543056-2 2v22c0 1.10457038.89543056 2 2 2h16c1.10457039 0 2-.89542962 2-2v-22c0-1.10456944-.89542961-2-2-2h-3.5V0h-9zm.99929047 1v3h7.00141906V1h-7.00141906zm6.00084686 1h-5.00027466v1h5.00027466V2zM6.5 4.0033722h3V5h9v-.9966278h3v21h-15v-21z"/>
      </g>
    </g>
    <g transform="translate(94)">
      <text font-size="0" style="white-space:pre">
        <tspan x="19.646" y="45" fill="rgb(146,146,146)" font-family="SF Pro Text" font-size="10" font-weight="400" style="white-space:pre" letter-spacing=".12">Documents</tspan>
      </text>
      <path fill="rgb(0,0,0)" fill-rule="evenodd" d="M40.875 9c-.41421366 0-.75-.33578634-.75-.75s.33578634-.75.75-.75h12.5c.41421318 0 .75.33578634.75.75s-.33578682.75-.75.75h-12.5zm-1 2.5c-.41421366 0-.75-.33578634-.75-.75s.33578634-.75.75-.75h14.5c.41421318 0 .75.33578634.75.75s-.33578682.75-.75.75h-14.5zm-2.25 18v-16c0-.55228472.44771528-1 1-1h17c.55228424 0 1 .44771528 1 1v16c0 .55228424-.44771576 1-1 1h-17c-.55228472 0-1-.44771576-1-1z"/>
    </g>
    <g>
      <text font-size="0" style="white-space:pre">
        <tspan x="25.289" y="45" fill="rgb(0,122,255)" font-family="SF Pro Text" font-size="10" font-weight="400" style="white-space:pre" letter-spacing=".12">Calendar</tspan>
      </text>
      <path fill="rgb(0,0,0)" fill-rule="evenodd" d="M40.625 8h13c1.3805008 0 2.5 1.11899996 2.5 2.5v17c0 1.38100052-1.1194992 2.5-2.5 2.5h-13c-1.38049984 0-2.5-1.11899948-2.5-2.5v-17c0-1.38100004 1.11950016-2.5 2.5-2.5zm14 2.5c0-.55149984-.44849968-1-1-1h-13c-.55149984 0-1 .44850016-1 1v17c0 .55150032.44850016 1 1 1h13c.55150032 0 1-.44849968 1-1v-17zm-7.5 2h-5.5c-.27499962 0-.5-.2249999-.5-.5v-.5c0-.2750001.22500038-.5.5-.5h5.5c.27499962 0 .5.2249999.5.5v.5c0 .2750001-.22500038.5-.5.5zm-6 14c0 .27499962.22500038.5.5.5h11c.27499962 0 .5-.22500038.5-.5v-11c0-.27499962-.22500038-.5-.5-.5h-11c-.27499962 0-.5.22500038-.5.5v11z"/>
    </g>
  </g>
  <g>
    <g>
      <use fill="black" stroke="black" stroke-opacity="0" stroke-width="0" filter="url(#filter-9)" xlink:href="#rect-8"/>
      <use fill="rgb(247,247,247)" fill-opacity=".8" xlink:href="#rect-8"/>
    </g>
    <path fill="rgb(0,0,0)" fill-rule="evenodd" d="M352.5 64.5v-5c0-.82842712-.67157288-1.5-1.5-1.5s-1.5.67157288-1.5 1.5v5h-5c-.82842712 0-1.5.67157288-1.5 1.5s.67157288 1.5 1.5 1.5h5v5c0 .82842712.67157288 1.5 1.5 1.5s1.5-.67157288 1.5-1.5v-5h5c.82842712 0 1.5-.67157288 1.5-1.5s-.67157288-1.5-1.5-1.5h-5z"/>
    <text font-size="0" style="white-space:pre">
      <tspan x="15" y="123" fill="rgb(0,0,0)" font-family="SF Pro Text" font-size="34" font-weight="600" style="white-space:pre;text-transform:none" letter-spacing="-.71">Documents</tspan>
    </text>
    <text font-size="0" style="white-space:pre">
      <tspan x="16" y="72" fill="rgb(0,122,255)" font-family="SF Pro Text" font-size="17" font-weight="400" style="white-space:pre;text-transform:none" letter-spacing="-.41">Edit</tspan>
    </text>
  </g>
  <text font-size="0" style="white-space:pre" transform="translate(15 154)">
    <tspan x="0" y="19" fill="rgb(0,0,0)" font-family="SF Pro Display" font-size="20" font-weight="400" style="white-space:pre;text-transform:none" letter-spacing=".38">Recents</tspan>
  </text>
  <text font-size="0" style="white-space:pre" transform="translate(15 329)">
    <tspan x="0" y="19" fill="rgb(0,0,0)" font-family="SF Pro Display" font-size="20" font-weight="400" style="white-space:pre;text-transform:none" letter-spacing=".38">Folders</tspan>
  </text>
  <g transform="translate(17 180)">
    <path fill="rgb(21,21,21)" fill-rule="evenodd" d="M5 0h92c2.75957512 0 5 2.24042488 5 5v120c0 2.75957512-2.24042488 5-5 5H5c-2.75957512 0-5-2.24042488-5-5V5c0-2.75957512 2.24042488-5 5-5z"/>
    <g>
      <use fill-opacity="0" stroke="rgb(255,51,102)" stroke-linecap="butt" stroke-linejoin="miter" stroke-width="4" mask="url(#mask-13)" xlink:href="#rect-12"/>
      <path fill="none" stroke="rgb(255,51,102)" stroke-width="2" d="M100.0024158 90.00417762l-35.00100563-35.0090234-47.99729455 49.00532715"/>
      <use fill-opacity="0" stroke="rgb(255,51,102)" stroke-width="4" mask="url(#mask-16)" xlink:href="#ellipse-15"/>
    </g>
  </g>
  <g transform="translate(137 180)">
    <path fill="rgb(21,21,21)" fill-rule="evenodd" d="M5 0h92c2.75957512 0 5 2.24042488 5 5v120c0 2.75957512-2.24042488 5-5 5H5c-2.75957512 0-5-2.24042488-5-5V5c0-2.75957512 2.24042488-5 5-5z"/>
    <g>
      <use fill-opacity="0" stroke="rgb(255,51,102)" stroke-linecap="butt" stroke-linejoin="miter" stroke-width="4" mask="url(#mask-19)" xlink:href="#rect-18"/>
      <path fill="none" stroke="rgb(255,51,102)" stroke-width="2" d="M100.0024158 90.00417762l-35.00100563-35.0090234-47.99729455 49.00532715"/>
      <use fill-opacity="0" stroke="rgb(255,51,102)" stroke-width="4" mask="url(#mask-22)" xlink:href="#ellipse-21"/>
    </g>
  </g>
  <g transform="translate(257 179)">
    <path fill="rgb(21,21,21)" fill-rule="evenodd" d="M5 0h92c2.75957512 0 5 2.24042488 5 5v120c0 2.75957512-2.24042488 5-5 5H5c-2.75957512 0-5-2.24042488-5-5V5c0-2.75957512 2.24042488-5 5-5z"/>
    <g>
      <use fill-opacity="0" stroke="rgb(255,51,102)" stroke-linecap="butt" stroke-linejoin="miter" stroke-width="4" mask="url(#mask-25)" xlink:href="#rect-24"/>
      <path fill="none" stroke="rgb(255,51,102)" stroke-width="2" d="M100.0024158 90.00417762l-35.00100563-35.0090234-47.99729455 49.00532715"/>
      <use fill-opacity="0" stroke="rgb(255,51,102)" stroke-width="4" mask="url(#mask-28)" xlink:href="#ellipse-27"/>
    </g>
  </g>
  <g transform="translate(0 361)">
    <g transform="translate(0 88)">
      <g>
        <use fill="black" stroke="black" stroke-opacity="0" stroke-width="0" filter="url(#filter-30)" xlink:href="#rect-29"/>
        <use fill="rgb(255,255,255)" xlink:href="#rect-29"/>
      </g>
      <path fill="rgb(199,199,204)" fill-rule="evenodd" d="M357.30535495 22.02975679l-5.50858404-5.28780278 1.38500397-1.44283194 7.02145421 6.74003788-7.0306294 6.66171798-1.37561137-1.45178972 5.50836663-5.21933142z"/>
      <text font-size="0" style="white-space:pre" transform="translate(286 11)">
        <tspan x="11.122" y="17" fill="rgb(142,142,147)" font-family="SF Pro Text" font-size="17" font-weight="400" style="white-space:pre;text-transform:none" letter-spacing="-.41">Value</tspan>
      </text>
      <text font-size="0" style="white-space:pre" transform="translate(59 11)">
        <tspan x="0" y="17" fill="rgb(0,0,0)" font-family="SF Pro Text" font-size="17" font-weight="400" style="white-space:pre;text-transform:none" letter-spacing="-.41">Blood Results</tspan>
      </text>
    </g>
    <path fill="rgb(0,0,0)" fill-rule="evenodd" d="M23.78478463 99.25C19.90809738 99.2500019 17 102.3251105 17 106.78547652c0 3.09791522 1.99999636 6.39576813 5.20079759 9.49710747 2.51419333 2.43606714 5.50284762 4.44420788 6.77692438 4.46721309 1.6739897.03022618 6.16101917-3.32128221 8.89680558-6.70807113.43255763-.53548821.3518144-1.32243786-.18034502-1.75770123-.53215944-.43526337-1.31421713-.35401508-1.74677476.18147313-2.28682603 2.83099478-6.258752 5.7977556-6.92512974 5.78572323-.4120237-.00743965-3.03802937-1.77190903-5.09891622-3.76875576-2.75966225-2.67390834-4.43991809-5.44453167-4.43991809-7.6969888 0-3.1071831 1.82453164-5.03649709 4.30134211-5.0364983 1.67457192-8.1e-7 3.11621177.5641732 4.38161214 1.71751512l.83433418.7604491.8336736-.7611823c1.26257047-1.15278482 2.7034065-1.71678273 4.37952803-1.71678192 2.47924104.00000121 4.3026225 1.92825194 4.3026225 5.03794102 0 .37106065-.04519686.75789915-.135212 1.1597658-.15078866.67318591.26930557 1.3419139.93830673 1.49364577.66900115.15173187 1.3335721-.27099015 1.48436075-.94417606C40.93335353 107.918717 41 107.3482919 41 106.78691924c0-4.46283016-2.9069008-7.53691735-6.78606502-7.53691924-1.9343706-9.4e-7-3.68390453.56574294-5.2144764 1.68239639-1.53214565-1.11661035-3.28168516-1.68239733-5.21467395-1.68239639z"/>
    <g transform="translate(0 44)">
      <g>
        <use fill="black" stroke="black" stroke-opacity="0" stroke-width="0" filter="url(#filter-34)" xlink:href="#rect-33"/>
        <use fill="rgb(255,255,255)" xlink:href="#rect-33"/>
      </g>
      <rect width="316" height="44" x="59" y="0" fill="black" filter="url(#filter-36)" rx="0" ry="0"/>
      <path fill="rgb(199,199,204)" fill-rule="evenodd" d="M357.30535495 22.02975679l-5.50858404-5.28780278 1.38500397-1.44283194 7.02145421 6.74003788-7.0306294 6.66171798-1.37561137-1.45178972 5.50836663-5.21933142z"/>
      <text font-size="0" style="white-space:pre" transform="translate(286 11)">
        <tspan x="11.122" y="17" fill="rgb(142,142,147)" font-family="SF Pro Text" font-size="17" font-weight="400" style="white-space:pre;text-transform:none" letter-spacing="-.41">Value</tspan>
      </text>
      <text font-size="0" style="white-space:pre" transform="translate(59 11)">
        <tspan x="0" y="17" fill="rgb(0,0,0)" font-family="SF Pro Text" font-size="17" font-weight="400" style="white-space:pre;text-transform:none" letter-spacing="-.41">Clinic Letters</tspan>
      </text>
    </g>
    <path fill="rgb(0,0,0)" fill-rule="evenodd" d="M39.98617482 55.84229994l-.88388252-.88388348c-.48815537-.48815536-1.27961159-.48815536-1.76776695 0l-.70710755.70710683 2.65164948 2.65165067.70710754-.70710707c.48815537-.48815536.48815537-1.27961159 0-1.76776695zM28.50480008 69.07660627l.00388336.010952-2.9821062.44409561c-.05462647.00813675-.10550404-.02955246-.11363888-.08417892-.00145436-.00976563-.00145436-.01969338 0-.029459l.44409465-2.98210717.01076794.00369835-.01076794-.01076698 10.2506628-10.25066423.88388444.88388347-9.83101654 9.83101607c.15733719.24864196.2830038.41996002.3769989.51395416.0955143.0955162.2634325.21629333.5037527.3623352l.00280762.00791932 9.83133984-9.83134127.88388252.88388347-10.25066185 10.25066329-.00388336-.00388337zm4.14290333-10.66886377H17.64770246v18.98455668l19 .01544189V62.4077425l-1 1.00000048v12.9845562l-17 .01544189V59.4077425H31.6477034l1-1z"/>
    <g>
      <g>
        <use fill="black" stroke="black" stroke-opacity="0" stroke-width="0" filter="url(#filter-40)" xlink:href="#rect-39"/>
        <use fill="rgb(255,255,255)" xlink:href="#rect-39"/>
      </g>
      <rect width="316" height="44" x="59" y="0" fill="black" filter="url(#filter-42)" rx="0" ry="0"/>
      <path fill="rgb(199,199,204)" fill-rule="evenodd" d="M357.30535495 22.02975679l-5.50858404-5.28780278 1.38500397-1.44283194 7.02145421 6.74003788-7.0306294 6.66171798-1.37561137-1.45178972 5.50836663-5.21933142z"/>
      <text font-size="0" style="white-space:pre" transform="translate(286 11)">
        <tspan x="11.122" y="17" fill="rgb(142,142,147)" font-family="SF Pro Text" font-size="17" font-weight="400" style="white-space:pre;text-transform:none" letter-spacing="-.41">Value</tspan>
      </text>
      <text font-size="0" style="white-space:pre" transform="translate(59 11)">
        <tspan x="0" y="17" fill="rgb(0,0,0)" font-family="SF Pro Text" font-size="17" font-weight="400" style="white-space:pre;text-transform:none" letter-spacing="-.41">Appointment Letters</tspan>
      </text>
    </g>
    <path fill="rgb(0,0,0)" fill-rule="evenodd" d="M20 11h18c1.10383034 0 2 .8961699 2 2v18c0 1.10383034-.89616966 2-2 2H20c-1.1038301 0-2-.89616966-2-2V13c0-1.1038301.8961699-2 2-2zm-.5 1.98498535c0-.2761426.2238574-.5.5-.5h18c.27614212 0 .5.2238574.5.5v3.5h-19v-3.5zm5.98547363 7.74365235c.41421318 0 .75-.33578682.75-.75 0-.41421319-.33578682-.75-.75-.75s-.75.33578681-.75.75c0 .41421318.33578682.75.75.75zm4.25-.75c0 .41421318-.33578682.75-.75.75s-.75-.33578682-.75-.75c0-.41421319.33578682-.75.75-.75s.75.33578681.75.75zm2.75.75c.41421318 0 .75-.33578682.75-.75 0-.41421319-.33578682-.75-.75-.75s-.75.33578681-.75.75c0 .41421318.33578682.75.75.75zm4.25-.75c0 .41421318-.33578682.75-.75.75s-.75-.33578682-.75-.75c0-.41421319.33578682-.75.75-.75s.75.33578681.75.75zm-2.50549316 4.50136184c0 .96649933-.78350067 1.75-1.75 1.75-.96649742 0-1.75-.78350067-1.75-1.75 0-.96649837.78350258-1.75 1.75-1.75.96649933 0 1.75.78350163 1.75 1.75zm-12.24450684.74863816c.41421366 0 .75-.33578682.75-.75 0-.41421319-.33578634-.75-.75-.75-.41421365 0-.75.33578681-.75.75 0 .41421318.33578635.75.75.75zm4.25-.75c0 .41421318-.33578682.75-.75.75s-.75-.33578682-.75-.75c0-.41421319.33578682-.75.75-.75s.75.33578681.75.75zm2.75.75c.41421318 0 .75-.33578682.75-.75 0-.41421319-.33578682-.75-.75-.75s-.75.33578681-.75.75c0 .41421318.33578682.75.75.75zm7 0c.41421318 0 .75-.33578682.75-.75 0-.41421319-.33578682-.75-.75-.75s-.75.33578681-.75.75c0 .41421318.33578682.75.75.75zm-13.25 3.7536621c0 .41421319-.33578634.75-.75.75-.41421365 0-.75-.33578681-.75-.75 0-.41421318.33578635-.75.75-.75.41421366 0 .75.33578682.75.75zm2.75.75c.41421318 0 .75-.33578681.75-.75 0-.41421318-.33578682-.75-.75-.75s-.75.33578682-.75.75c0 .41421319.33578682.75.75.75zm4.25-.75c0 .41421319-.33578682.75-.75.75s-.75-.33578681-.75-.75c0-.41421318.33578682-.75.75-.75s.75.33578682.75.75zm2.75.75c.41421318 0 .75-.33578681.75-.75 0-.41421318-.33578682-.75-.75-.75s-.75.33578682-.75.75c0 .41421319.33578682.75.75.75z"/>
  </g>
</svg>
